<svg width="35" height="35" viewBox="0 0 35 35" fill="none" xmlns="http://www.w3.org/2000/svg">
<path fill-rule="evenodd" clip-rule="evenodd" d="M10.2084 13.125C9.92 13.1251 9.63811 13.2106 9.39835 13.3709C9.15858 13.5311 8.97171 13.7589 8.86136 14.0253C8.75101 14.2917 8.72213 14.5849 8.77837 14.8678C8.83462 15.1506 8.97346 15.4104 9.17735 15.6144L16.469 22.906C16.7425 23.1794 17.1134 23.333 17.5001 23.333C17.8868 23.333 18.2576 23.1794 18.5311 22.906L25.8228 15.6144C26.0267 15.4104 26.1655 15.1506 26.2217 14.8678C26.278 14.5849 26.2491 14.2917 26.1388 14.0253C26.0284 13.7589 25.8415 13.5311 25.6018 13.3709C25.362 13.2106 25.0801 13.1251 24.7917 13.125H10.2084Z" fill="white"/>
</svg>
