<svg width="50" height="50" viewBox="0 0 50 50" fill="none" xmlns="http://www.w3.org/2000/svg">
<path d="M45.8333 11.4583H18.75C16.4583 11.4583 14.5833 13.3333 14.5833 15.6249V34.3749C14.5833 35.48 15.0223 36.5398 15.8037 37.3212C16.5851 38.1026 17.6449 38.5416 18.75 38.5416H45.8333C48.1458 38.5416 50 36.6874 50 34.3749V15.6249C50 14.5199 49.561 13.46 48.7796 12.6786C47.9982 11.8972 46.9384 11.4583 45.8333 11.4583ZM45.8333 34.3749H18.75V19.1041L32.2917 26.0416L45.8333 19.1041V34.3749ZM32.2917 22.5208L18.75 15.6249H45.8333L32.2917 22.5208ZM10.4167 34.3749C10.4167 34.7291 10.4792 35.0624 10.5208 35.4166H2.08333C0.933333 35.4166 0 34.4791 0 33.3333C0 32.1874 0.933333 31.2499 2.08333 31.2499H10.4167V34.3749ZM6.25 14.5833H10.5208C10.4792 14.9374 10.4167 15.2708 10.4167 15.6249V18.7499H6.25C5.10417 18.7499 4.16667 17.8124 4.16667 16.6666C4.16667 15.5208 5.10417 14.5833 6.25 14.5833ZM2.08333 24.9999C2.08333 23.8541 3.02083 22.9166 4.16667 22.9166H10.4167V27.0833H4.16667C3.02083 27.0833 2.08333 26.1458 2.08333 24.9999Z" fill="#9A7B6C"/>
</svg>
