<svg width="21" height="20" viewBox="0 0 21 20" fill="none" xmlns="http://www.w3.org/2000/svg">
<path d="M10.0168 0C4.48827 0 0.0168457 4.5 0.0168457 10.0571C0.0168457 15.0714 3.67399 19.2429 8.4597 20V12.9714H5.91685V10.0571H8.4597V7.84286C8.4597 5.31429 9.9597 3.92857 12.2311 3.92857C13.3311 3.92857 14.474 4.12857 14.474 4.12857V6.6H13.2168C11.974 6.6 11.5883 7.37143 11.5883 8.17143V10.0571H14.3597L13.9168 12.9714H11.5883V20C16.374 19.2429 20.0311 15.0857 20.0311 10.0571C20.0311 4.5 15.5597 0 10.0311 0H10.0168Z" fill="white"/>
</svg>
