<svg width="21" height="20" viewBox="0 0 21 20" fill="none" xmlns="http://www.w3.org/2000/svg">
<path d="M10.0312 7.52C9.54075 7.52 9.06127 7.66545 8.65344 7.93795C8.2456 8.21046 7.92773 8.59778 7.74003 9.05095C7.55232 9.50411 7.50321 10.0028 7.5989 10.4838C7.69459 10.9649 7.93079 11.4068 8.27763 11.7536C8.62446 12.1005 9.06635 12.3367 9.54743 12.4323C10.0285 12.528 10.5271 12.4789 10.9803 12.2912C11.4335 12.1035 11.8208 11.7856 12.0933 11.3778C12.3658 10.97 12.5112 10.4905 12.5112 10C12.5112 9.67432 12.4471 9.35183 12.3225 9.05095C12.1978 8.75006 12.0152 8.47666 11.7849 8.24638C11.5546 8.01609 11.2812 7.83341 10.9803 7.70878C10.6794 7.58415 10.3569 7.52 10.0312 7.52ZM19.9613 5.07C19.956 4.29776 19.8138 3.53257 19.5413 2.81C19.3405 2.28126 19.03 1.80109 18.6301 1.40119C18.2302 1.00128 17.75 0.690718 17.2213 0.49C16.4987 0.217464 15.7335 0.0752609 14.9613 0.0699999C13.6713 -6.70552e-08 13.2913 0 10.0312 0C6.77125 0 6.39125 -6.70552e-08 5.10125 0.0699999C4.32901 0.0752609 3.56382 0.217464 2.84125 0.49C2.31251 0.690718 1.83234 1.00128 1.43244 1.40119C1.03253 1.80109 0.721968 2.28126 0.52125 2.81C0.248714 3.53257 0.106511 4.29776 0.10125 5.07C0.0312499 6.36 0.03125 6.74 0.03125 10C0.03125 13.26 0.0312499 13.64 0.10125 14.93C0.112014 15.705 0.254024 16.4725 0.52125 17.2C0.721078 17.7263 1.03138 18.2037 1.43125 18.6C1.82944 19.0023 2.31064 19.3129 2.84125 19.51C3.56382 19.7825 4.32901 19.9247 5.10125 19.93C6.39125 20 6.77125 20 10.0312 20C13.2913 20 13.6713 20 14.9613 19.93C15.7335 19.9247 16.4987 19.7825 17.2213 19.51C17.7519 19.3129 18.2331 19.0023 18.6313 18.6C19.0311 18.2037 19.3414 17.7263 19.5413 17.2C19.8135 16.4739 19.9557 15.7055 19.9613 14.93C20.0312 13.64 20.0312 13.26 20.0312 10C20.0312 6.74 20.0312 6.36 19.9613 5.07ZM17.4212 13.07C17.3892 13.6871 17.2575 14.295 17.0312 14.87C16.8371 15.3497 16.5485 15.7854 16.1826 16.1514C15.8167 16.5173 15.3809 16.8059 14.9013 17C14.3208 17.2136 13.7095 17.3318 13.0913 17.35H6.97125C6.35298 17.3318 5.74174 17.2136 5.16125 17C4.66535 16.8157 4.21753 16.5217 3.85125 16.14C3.48892 15.7813 3.20909 15.3479 3.03125 14.87C2.81681 14.2901 2.70186 13.6782 2.69125 13.06V6.94C2.70186 6.32183 2.81681 5.70988 3.03125 5.13C3.21553 4.6341 3.50952 4.18628 3.89125 3.82C4.25158 3.45962 4.68451 3.18009 5.16125 3C5.74174 2.78641 6.35298 2.66821 6.97125 2.65H13.0913C13.7095 2.66821 14.3208 2.78641 14.9013 3C15.3971 3.18428 15.845 3.47827 16.2113 3.86C16.5736 4.21875 16.8534 4.65213 17.0312 5.13C17.2448 5.71049 17.363 6.32173 17.3813 6.94V10C17.3813 12.06 17.4513 12.27 17.4212 13.06V13.07ZM15.8213 5.63C15.7022 5.30698 15.5145 5.01364 15.271 4.77021C15.0276 4.52678 14.7343 4.33906 14.4112 4.22C13.9677 4.06626 13.5006 3.99179 13.0312 4H7.03125C6.55952 4.00461 6.09232 4.09263 5.65125 4.26C5.33318 4.37366 5.04294 4.55371 4.79983 4.7882C4.55672 5.02269 4.36631 5.30624 4.24125 5.62C4.09603 6.06537 4.02508 6.5316 4.03125 7V13C4.04116 13.4712 4.12902 13.9375 4.29125 14.38C4.41031 14.703 4.59803 14.9964 4.84146 15.2398C5.08489 15.4832 5.37823 15.6709 5.70125 15.79C6.12792 15.9469 6.5769 16.0347 7.03125 16.05H13.0312C13.503 16.0454 13.9702 15.9574 14.4112 15.79C14.7343 15.6709 15.0276 15.4832 15.271 15.2398C15.5145 14.9964 15.7022 14.703 15.8213 14.38C15.9886 13.9389 16.0766 13.4717 16.0812 13V7C16.0815 6.5278 15.9934 6.05972 15.8213 5.62V5.63ZM10.0312 13.82C9.53007 13.82 9.03382 13.7211 8.57091 13.529C8.10801 13.3369 7.68755 13.0554 7.33363 12.7005C6.97971 12.3457 6.69928 11.9245 6.50839 11.4611C6.31751 10.9977 6.21993 10.5012 6.22125 10C6.22125 9.24405 6.44555 8.5051 6.86574 7.87669C7.28593 7.24828 7.88312 6.75866 8.58172 6.46983C9.28032 6.181 10.0489 6.10594 10.7902 6.25415C11.5315 6.40236 12.2121 6.76717 12.7459 7.30241C13.2798 7.83764 13.6428 8.51924 13.7891 9.2609C13.9353 10.0026 13.8583 10.771 13.5676 11.4688C13.2769 12.1666 12.7858 12.7625 12.1562 13.1811C11.5267 13.5996 10.7872 13.822 10.0312 13.82ZM14.0312 6.93C13.8102 6.9066 13.6056 6.80222 13.4569 6.63697C13.3083 6.47172 13.226 6.25729 13.226 6.035C13.226 5.81271 13.3083 5.59828 13.4569 5.43303C13.6056 5.26778 13.8102 5.1634 14.0312 5.14C14.2523 5.1634 14.4569 5.26778 14.6056 5.43303C14.7542 5.59828 14.8365 5.81271 14.8365 6.035C14.8365 6.25729 14.7542 6.47172 14.6056 6.63697C14.4569 6.80222 14.2523 6.9066 14.0312 6.93Z" fill="white"/>
</svg>
