<svg width="21" height="20" viewBox="0 0 21 20" fill="none" xmlns="http://www.w3.org/2000/svg">
<path fill-rule="evenodd" clip-rule="evenodd" d="M3.84005 0C3.08229 0 2.35557 0.30102 1.81975 0.836838C1.28393 1.37266 0.98291 2.09938 0.98291 2.85714V17.1429C0.98291 17.9006 1.28393 18.6273 1.81975 19.1632C2.35557 19.699 3.08229 20 3.84005 20H18.1258C18.8835 20 19.6103 19.699 20.1461 19.1632C20.6819 18.6273 20.9829 17.9006 20.9829 17.1429V2.85714C20.9829 2.09938 20.6819 1.37266 20.1461 0.836838C19.6103 0.30102 18.8835 0 18.1258 0H3.84005ZM5.41434 6.13857C5.8671 6.13857 6.30132 5.95871 6.62147 5.63856C6.94162 5.31841 7.12148 4.88419 7.12148 4.43143C7.12148 3.97867 6.94162 3.54445 6.62147 3.2243C6.30132 2.90415 5.8671 2.72429 5.41434 2.72429C4.96158 2.72429 4.52736 2.90415 4.20721 3.2243C3.88706 3.54445 3.7072 3.97867 3.7072 4.43143C3.7072 4.88419 3.88706 5.31841 4.20721 5.63856C4.52736 5.95871 4.96158 6.13857 5.41434 6.13857ZM6.84291 16.8757V7.47714H3.98577V16.8757H6.84291ZM8.74005 7.47714H11.5972V8.73571C12.0186 8.07571 12.9443 7.18714 14.6658 7.18714C16.7201 7.18714 17.8358 8.54857 17.8358 11.1386C17.8358 11.2629 17.8472 11.83 17.8472 11.83V16.8743H14.9901V11.8314C14.9901 11.1386 14.8443 9.77714 13.3043 9.77714C11.7629 9.77714 11.6329 11.4886 11.5972 12.6086V16.8743H8.74005V7.47714Z" fill="white"/>
</svg>
