<svg width="51" height="50" viewBox="0 0 51 50" fill="none" xmlns="http://www.w3.org/2000/svg">
<path d="M45.7891 34.1954C45.4408 36.8419 44.1411 39.2712 42.1326 41.0295C40.1242 42.7878 37.5444 43.7549 34.875 43.7501C19.3672 43.7501 6.75002 31.1329 6.75002 15.6251C6.74523 12.9557 7.7123 10.3759 9.47059 8.36747C11.2289 6.35902 13.6582 5.05929 16.3047 4.71103C16.9739 4.62931 17.6517 4.76623 18.2367 5.10134C18.8217 5.43645 19.2827 5.95178 19.5508 6.57041L23.6758 15.7794V15.8028C23.881 16.2764 23.9658 16.7934 23.9225 17.3077C23.8792 17.822 23.7093 18.3175 23.4278 18.7501C23.3926 18.8028 23.3555 18.8517 23.3164 18.9005L19.25 23.7208C20.7129 26.6935 23.8223 29.7755 26.834 31.2423L31.5879 27.1974C31.6346 27.1581 31.6835 27.1216 31.7344 27.088C32.1666 26.7997 32.6639 26.6237 33.1812 26.576C33.6985 26.5283 34.2196 26.6102 34.6973 26.8145L34.7227 26.8263L43.9238 30.9493C44.5436 31.2164 45.0602 31.677 45.3964 32.2621C45.7326 32.8472 45.8704 33.5255 45.7891 34.1954Z" fill="#9A7B6C"/>
</svg>
