<svg width="20" height="20" viewBox="0 0 20 20" fill="none" xmlns="http://www.w3.org/2000/svg">
<path d="M10.0216 0C4.50389 0 0.03125 4.47264 0.03125 9.99031C0.03125 14.2223 2.66508 17.8356 6.38207 19.2906C6.29395 18.4993 6.21582 17.2887 6.41457 16.4261C6.59708 15.6449 7.58649 11.4616 7.58649 11.4616C7.58649 11.4616 7.2871 10.8591 7.2871 9.97719C7.2871 8.59027 8.09463 7.55211 9.09403 7.55211C9.94718 7.55211 10.3603 8.19026 10.3603 8.95841C10.3603 9.81468 9.81656 11.0972 9.53342 12.2854C9.29591 13.2785 10.0316 14.0886 11.0116 14.0886C12.786 14.0886 14.1529 12.2166 14.1529 9.51467C14.1529 7.13147 12.4341 5.4583 9.97969 5.4583C7.13772 5.4583 5.47079 7.59399 5.47079 9.79093C5.47079 10.6503 5.79956 11.5747 6.21332 12.0729C6.29457 12.1735 6.30457 12.2616 6.28145 12.3629C6.20644 12.6754 6.03706 13.3623 6.00456 13.4992C5.95893 13.6848 5.86143 13.7236 5.66955 13.6361C4.42576 13.0598 3.64136 11.2366 3.64136 9.76531C3.64136 6.61771 5.93331 3.72012 10.2434 3.72012C13.7073 3.72012 16.4024 6.19394 16.4024 9.48842C16.4024 12.936 14.2311 15.7092 11.2103 15.7092C10.1978 15.7092 9.24716 15.1848 8.91215 14.5598L8.28713 16.933C8.06275 17.8024 7.45023 18.8925 7.03709 19.5537C7.97462 19.84 8.9609 20 9.99594 20C15.5042 20 19.9831 15.5305 19.9831 10.0097C19.9831 4.49201 15.5036 0.0225007 9.99594 0.0225007L10.0216 0Z" fill="white"/>
</svg>
